# xmcd
#
# Track frame offsets:
# 150
# 11370
# 23465
# 37527
# 47985
# 60837
# 71994
# 82675
# 102585
# 116193
#
# Disc length: 1741 seconds
#
# Revision: 1
# Processed by: cddbd v1.5.2PL0 Copyright (c) Steve Scherf et al.
# Submitted via: CedeCatalogueitor 2.6.0.6 http://personales.ya.com/cdcatalogueitor
#
DISCID=6f06cb0a
DTITLE=Feedtime - The Aberrant Years
DYEAR=1900
DGENRE=
TTITLE0=Motorbike Girl
TTITLE1=Shoeshine Shuffle
TTITLE2=Ever Again
TTITLE3=Play Whith Fire
TTITLE4=F#
TTITLE5=Rock N Roll
TTITLE6=Hear Me Calling
TTITLE7=Curtain
TTITLE8=I'll Be Rested
TTITLE9=All Down
EXTD=
EXTT0=
EXTT1=
EXTT2=
EXTT3=
EXTT4=
EXTT5=
EXTT6=
EXTT7=
EXTT8=
EXTT9=
PLAYORDER=
